<svg id="Capa_1" data-name="Capa 1" xmlns="http://www.w3.org/2000/svg" viewBox="0 0 150 150"><defs><style>.cls-1{fill:#ff5e2a;}.cls-2{fill:#fff;}.cls-2,.cls-3{fill-rule:evenodd;}.cls-3{fill:none;}</style></defs><title>redesicons</title><circle class="cls-1" cx="75" cy="75" r="62.85"/><path class="cls-2" d="M41.49,66.47a5.21,5.21,0,0,0-1.74,0,5.48,5.48,0,0,0-4.44,3.85s-.2,1.38-.2,2v9.87a7,7,0,0,0,1,3.16A5.09,5.09,0,0,0,40,87.66a10.11,10.11,0,0,0,1.45,0,5,5,0,0,0,3.72-2.3,7,7,0,0,0,1-3.16V72.3c0-.59-.19-2-.19-2A5.48,5.48,0,0,0,41.49,66.47Zm.93,5.83v9.87c0,2.37-1.78,2.17-1.78,2.17s-2,.2-2-2.17V72.3c0-2.77,2-2.57,2-2.57C42.62,69.73,42.42,72.3,42.42,72.3Zm-14.61-2-3-10.86H20.5L25.83,76V87.31h3.95V76l5.13-16.59H30.77Zm28.64-3.75v16a3.47,3.47,0,0,1-2.17,1.78c-1.38,0-1.19-1-1.19-1V66.57H49.33v18c0,2,1,3.16,3,3.16s4.15-2.57,4.15-2.57v2.37h3.75V66.57Z"/><path class="cls-2" d="M120.14,72.2s-.2-2.19-1.79-2.19-2,1.79-2,2.19v2.59h3.78Zm2.58-18.51c-4.57-.8-9.75-.6-26.27-.8-11.15,0-16.75.2-17.52.2-7.17.4-12.15-.59-13.94,7.17A86.53,86.53,0,0,0,63.8,74.49c.39,9.27-.39,20.41,8.55,21.21,4.59.4,16.53.59,24.4.59,10.74,0,22.4-.2,26.38-1a7.61,7.61,0,0,0,3.78-3c2.33-3.12,2.37-7.83,2.58-17.92C129.1,65.83,129.7,54.68,122.72,53.69Zm-39.61,10H78.54v24.1H74.34V63.64H70V59.46H83.11A29.49,29.49,0,0,1,83.11,63.64Zm11.75,24.3H91.07v-2.4s-2,2.6-4.18,2.6-3-1.4-3-4V66.83h3.78V83.76s0,.79,1,.79a3.38,3.38,0,0,0,2.39-1.79V66.83h3.78Zm14.54-3.78s-.41,4-2.8,4A5.7,5.7,0,0,1,102,85.75v2.19H98.25V59.66H102v9.16s2-2.39,3.78-2.39a3.5,3.5,0,0,1,3.59,3.78Zm14.33,0c-.59,3.59-5,4-5,4a5.75,5.75,0,0,1-6.17-6v-10a8.14,8.14,0,0,1,.39-2c.41-1.19.81-3.59,5.58-3.59,5.58,0,5.38,5.58,5.38,5.58V78h-7.57v4.18a2.13,2.13,0,0,0,2.19,2.39c1.6,0,1.6-2.39,1.6-2.39v-1.6h3.78A12.09,12.09,0,0,1,123.73,84.15ZM104,70a2.86,2.86,0,0,0-1.79.8V83.76a2.47,2.47,0,0,0,1.79.79c1.6,0,1.6-1.79,1.6-1.79V72.2C105.61,70.81,105,70,104,70Z"/><path class="cls-3" d="M116.36,74.67h3.78V72.08s-.2-2.19-1.79-2.19-2,1.79-2,2.19Z"/><path class="cls-3" d="M102.23,70.69a2.86,2.86,0,0,1,1.79-.8c1,0,1.6.8,1.6,2.19V82.63s0,1.79-1.6,1.79a2.47,2.47,0,0,1-1.79-.79Z"/></svg>