<svg id="Layer_1" data-name="Layer 1" xmlns="http://www.w3.org/2000/svg" viewBox="0 0 348 414.04"><defs><style>.cls-1{fill:#fff;}.cls-2{fill:#ff5c00;}</style></defs><title>WEB OkTrip Segunda Versión FINAL</title><circle class="cls-1" cx="174" cy="164.5" r="103.5"/><path class="cls-2" d="M176.32,212.83c.26-3.71.66-35.39.66-50l.23-11.27c-2.37-10.9-11-35.5-11.62-38.37l13-2.63c.31,2,7.68,26.49,10.05,37.38l.29,13.86c0,9.86.4,48.58.67,51ZM236.84,202c-1.33-1.79-41.27-41.46-47-47.6,2.26-2,40.21-38.12,43.27-41.45l7.7,8.44c-5,4.61-29.07,25.33-36.1,32.11,4.12,4.86,35.84,34.8,40.88,39.54Z"/><path class="cls-2" d="M200,134.5a11.34,11.34,0,1,1,11.75-11.33A11.56,11.56,0,0,1,200,134.5m0-15.1a3.78,3.78,0,1,0,3.91,3.77A3.85,3.85,0,0,0,200,119.4"/><path class="cls-2" d="M131.58,201.14c-21.06,0-38.2-16.52-38.2-36.82s17.14-36.81,38.2-36.81,38.19,16.52,38.19,36.81-17.13,36.82-38.19,36.82m0-63.56c-15.3,0-27.75,12-27.75,26.74s12.45,26.75,27.75,26.75,27.74-12,27.74-26.75-12.44-26.74-27.74-26.74"/><path class="cls-2" d="M34.79,168.4C35.18,94,89.31,32.7,157.12,25.76c82.1-8.4,144,48.53,154.61,118.21,5.22,34.39-4,65.95-17.78,96.46-24.48,54.36-60.36,101-100.29,144.8-10.55,11.58-28.77,11.37-38.7.46-44-48.33-83.21-99.75-107.38-161.2C39.88,204.89,35.42,184.53,34.79,168.4ZM174,73.77c-46.52,0-90.27,35.08-90.21,90.2s43.39,90.08,90.32,90c47.11,0,90.26-35.35,90.21-90.16C264.29,108.58,220.38,73.66,174,73.77Z"/></svg>