<svg id="Capa_1" data-name="Capa 1" xmlns="http://www.w3.org/2000/svg" viewBox="0 0 150 150"><defs><style>.cls-1{fill:#de5c16;}</style></defs><title>oktrip</title><path class="cls-1" d="M49.27,60.3c-9.27,0-16.81,7.27-16.81,16.2S40,92.7,49.27,92.7s16.8-7.27,16.8-16.2S58.54,60.3,49.27,60.3Z"/><ellipse class="cls-1" cx="90.7" cy="51.57" rx="2.37" ry="2.29"/><path class="cls-1" d="M74.59,5.9a69,69,0,1,0,69,69A69,69,0,0,0,74.59,5.9ZM90.7,44.71a6.87,6.87,0,1,1-7.12,6.86A7,7,0,0,1,90.7,44.71ZM49.27,98.8c-12.76,0-23.14-10-23.14-22.3S36.51,54.2,49.27,54.2,72.4,64.2,72.4,76.5,62,98.8,49.27,98.8Zm27.1,7.08c.16-2.24.4-21.44.4-30.27l.14-6.83c-1.44-6.6-6.66-21.5-7-23.24l7.87-1.59c.19,1.23,4.65,16,6.09,22.64L84,75c0,6,.24,29.42.4,30.89ZM113,99.32c-.8-1.08-25-25.11-28.46-28.83,1.37-1.24,24.36-23.09,26.21-25.11l4.66,5.11c-3.05,2.79-17.6,15.34-21.87,19.45,2.49,2.95,21.71,21.08,24.76,23.95Z"/></svg>