<svg id="Capa_1" data-name="Capa 1" xmlns="http://www.w3.org/2000/svg" viewBox="0 0 150 150"><defs><style>.cls-1{fill:#ff5e2a;}</style></defs><title>redesicons</title><path class="cls-1" d="M75,12.15A62.85,62.85,0,1,0,137.85,75,62.85,62.85,0,0,0,75,12.15Zm31.51,49.2q0,1,0,2c0,20.8-15.83,44.79-44.79,44.79a44.55,44.55,0,0,1-24.13-7.07,32,32,0,0,0,3.75.22,31.58,31.58,0,0,0,19.55-6.74,15.76,15.76,0,0,1-14.7-10.93,15.77,15.77,0,0,0,7.11-.27A15.75,15.75,0,0,1,40.72,67.95c0-.07,0-.13,0-.2a15.68,15.68,0,0,0,7.13,2A15.76,15.76,0,0,1,43,48.7,44.69,44.69,0,0,0,75.42,65.15a15.75,15.75,0,0,1,26.82-14.36,31.51,31.51,0,0,0,10-3.82,15.79,15.79,0,0,1-6.92,8.71,31.46,31.46,0,0,0,9-2.48A32,32,0,0,1,106.51,61.35Z"/></svg>